<svg width="70" height="70" viewBox="0 0 70 70" fill="none" xmlns="http://www.w3.org/2000/svg">
<rect x="1" y="1" width="68" height="68" rx="34" stroke="#CCCCCC" stroke-width="2"/>
<path d="M48.3333 19C49.3058 19 50.2384 19.3863 50.9261 20.0739C51.6137 20.7616 52 21.6942 52 22.6667V48.3333C52 49.3058 51.6137 50.2384 50.9261 50.9261C50.2384 51.6137 49.3058 52 48.3333 52H22.6667C21.6942 52 20.7616 51.6137 20.0739 50.9261C19.3863 50.2384 19 49.3058 19 48.3333V22.6667C19 21.6942 19.3863 20.7616 20.0739 20.0739C20.7616 19.3863 21.6942 19 22.6667 19H48.3333ZM47.4167 47.4167V37.7C47.4167 36.1149 46.787 34.5947 45.6661 33.4739C44.5453 32.353 43.0251 31.7233 41.44 31.7233C39.8817 31.7233 38.0667 32.6767 37.1867 34.1067V32.0717H32.0717V47.4167H37.1867V38.3783C37.1867 36.9667 38.3233 35.8117 39.735 35.8117C40.4157 35.8117 41.0686 36.0821 41.5499 36.5634C42.0313 37.0448 42.3017 37.6976 42.3017 38.3783V47.4167H47.4167ZM26.1133 29.1933C26.9302 29.1933 27.7136 28.8688 28.2912 28.2912C28.8688 27.7136 29.1933 26.9302 29.1933 26.1133C29.1933 24.4083 27.8183 23.015 26.1133 23.015C25.2916 23.015 24.5035 23.3414 23.9225 23.9225C23.3414 24.5035 23.015 25.2916 23.015 26.1133C23.015 27.8183 24.4083 29.1933 26.1133 29.1933ZM28.6617 47.4167V32.0717H23.5833V47.4167H28.6617Z" fill="white"/>
</svg>
