<svg width="25" height="22" viewBox="0 0 25 22" fill="none" xmlns="http://www.w3.org/2000/svg">
<path d="M0 1.21819C0 0.895105 0.146329 0.585254 0.406796 0.356799C0.667263 0.128344 1.02053 0 1.38889 0H5.55556C5.92391 0 6.27718 0.128344 6.53765 0.356799C6.79811 0.585254 6.94444 0.895105 6.94444 1.21819V4.87275C6.94444 5.19584 6.79811 5.50569 6.53765 5.73414C6.27718 5.9626 5.92391 6.09094 5.55556 6.09094H1.38889C1.02053 6.09094 0.667263 5.9626 0.406796 5.73414C0.146329 5.50569 0 5.19584 0 4.87275V1.21819ZM0 9.13641C0 8.81333 0.146329 8.50348 0.406796 8.27502C0.667263 8.04657 1.02053 7.91823 1.38889 7.91823H5.55556C5.92391 7.91823 6.27718 8.04657 6.53765 8.27502C6.79811 8.50348 6.94444 8.81333 6.94444 9.13641V12.791C6.94444 13.1141 6.79811 13.4239 6.53765 13.6524C6.27718 13.8808 5.92391 14.0092 5.55556 14.0092H1.38889C1.02053 14.0092 0.667263 13.8808 0.406796 13.6524C0.146329 13.4239 0 13.1141 0 12.791V9.13641ZM0 17.0546C0 16.7316 0.146329 16.4217 0.406796 16.1932C0.667263 15.9648 1.02053 15.8365 1.38889 15.8365H5.55556C5.92391 15.8365 6.27718 15.9648 6.53765 16.1932C6.79811 16.4217 6.94444 16.7316 6.94444 17.0546V20.7092C6.94444 21.0323 6.79811 21.3421 6.53765 21.5706C6.27718 21.799 5.92391 21.9274 5.55556 21.9274H1.38889C1.02053 21.9274 0.667263 21.799 0.406796 21.5706C0.146329 21.3421 0 21.0323 0 20.7092V17.0546ZM9.02778 1.21819C9.02778 0.895105 9.17411 0.585254 9.43457 0.356799C9.69504 0.128344 10.0483 0 10.4167 0H14.5833C14.9517 0 15.305 0.128344 15.5654 0.356799C15.8259 0.585254 15.9722 0.895105 15.9722 1.21819V4.87275C15.9722 5.19584 15.8259 5.50569 15.5654 5.73414C15.305 5.9626 14.9517 6.09094 14.5833 6.09094H10.4167C10.0483 6.09094 9.69504 5.9626 9.43457 5.73414C9.17411 5.50569 9.02778 5.19584 9.02778 4.87275V1.21819ZM9.02778 9.13641C9.02778 8.81333 9.17411 8.50348 9.43457 8.27502C9.69504 8.04657 10.0483 7.91823 10.4167 7.91823H14.5833C14.9517 7.91823 15.305 8.04657 15.5654 8.27502C15.8259 8.50348 15.9722 8.81333 15.9722 9.13641V12.791C15.9722 13.1141 15.8259 13.4239 15.5654 13.6524C15.305 13.8808 14.9517 14.0092 14.5833 14.0092H10.4167C10.0483 14.0092 9.69504 13.8808 9.43457 13.6524C9.17411 13.4239 9.02778 13.1141 9.02778 12.791V9.13641ZM9.02778 17.0546C9.02778 16.7316 9.17411 16.4217 9.43457 16.1932C9.69504 15.9648 10.0483 15.8365 10.4167 15.8365H14.5833C14.9517 15.8365 15.305 15.9648 15.5654 16.1932C15.8259 16.4217 15.9722 16.7316 15.9722 17.0546V20.7092C15.9722 21.0323 15.8259 21.3421 15.5654 21.5706C15.305 21.799 14.9517 21.9274 14.5833 21.9274H10.4167C10.0483 21.9274 9.69504 21.799 9.43457 21.5706C9.17411 21.3421 9.02778 21.0323 9.02778 20.7092V17.0546ZM18.0556 1.21819C18.0556 0.895105 18.2019 0.585254 18.4624 0.356799C18.7228 0.128344 19.0761 0 19.4444 0H23.6111C23.9795 0 24.3327 0.128344 24.5932 0.356799C24.8537 0.585254 25 0.895105 25 1.21819V4.87275C25 5.19584 24.8537 5.50569 24.5932 5.73414C24.3327 5.9626 23.9795 6.09094 23.6111 6.09094H19.4444C19.0761 6.09094 18.7228 5.9626 18.4624 5.73414C18.2019 5.50569 18.0556 5.19584 18.0556 4.87275V1.21819ZM18.0556 9.13641C18.0556 8.81333 18.2019 8.50348 18.4624 8.27502C18.7228 8.04657 19.0761 7.91823 19.4444 7.91823H23.6111C23.9795 7.91823 24.3327 8.04657 24.5932 8.27502C24.8537 8.50348 25 8.81333 25 9.13641V12.791C25 13.1141 24.8537 13.4239 24.5932 13.6524C24.3327 13.8808 23.9795 14.0092 23.6111 14.0092H19.4444C19.0761 14.0092 18.7228 13.8808 18.4624 13.6524C18.2019 13.4239 18.0556 13.1141 18.0556 12.791V9.13641ZM18.0556 17.0546C18.0556 16.7316 18.2019 16.4217 18.4624 16.1932C18.7228 15.9648 19.0761 15.8365 19.4444 15.8365H23.6111C23.9795 15.8365 24.3327 15.9648 24.5932 16.1932C24.8537 16.4217 25 16.7316 25 17.0546V20.7092C25 21.0323 24.8537 21.3421 24.5932 21.5706C24.3327 21.799 23.9795 21.9274 23.6111 21.9274H19.4444C19.0761 21.9274 18.7228 21.799 18.4624 21.5706C18.2019 21.3421 18.0556 21.0323 18.0556 20.7092V17.0546Z" fill="#222222"/>
</svg>
