<svg width="25" height="22" viewBox="0 0 25 22" fill="none" xmlns="http://www.w3.org/2000/svg">
<path d="M0 1.21817C0 0.895082 0.146329 0.585231 0.406796 0.356776C0.667263 0.128322 1.02053 -2.28882e-05 1.38889 -2.28882e-05H5.55556C5.92391 -2.28882e-05 6.27718 0.128322 6.53765 0.356776C6.79811 0.585231 6.94444 0.895082 6.94444 1.21817V4.87273C6.94444 5.19582 6.79811 5.50567 6.53765 5.73412C6.27718 5.96257 5.92391 6.09092 5.55556 6.09092H1.38889C1.02053 6.09092 0.667263 5.96257 0.406796 5.73412C0.146329 5.50567 0 5.19582 0 4.87273V1.21817ZM0 9.13639C0 8.81331 0.146329 8.50346 0.406796 8.275C0.667263 8.04655 1.02053 7.9182 1.38889 7.9182H5.55556C5.92391 7.9182 6.27718 8.04655 6.53765 8.275C6.79811 8.50346 6.94444 8.81331 6.94444 9.13639V12.791C6.94444 13.114 6.79811 13.4239 6.53765 13.6523C6.27718 13.8808 5.92391 14.0091 5.55556 14.0091H1.38889C1.02053 14.0091 0.667263 13.8808 0.406796 13.6523C0.146329 13.4239 0 13.114 0 12.791V9.13639ZM0 17.0546C0 16.7315 0.146329 16.4217 0.406796 16.1932C0.667263 15.9648 1.02053 15.8364 1.38889 15.8364H5.55556C5.92391 15.8364 6.27718 15.9648 6.53765 16.1932C6.79811 16.4217 6.94444 16.7315 6.94444 17.0546V20.7092C6.94444 21.0323 6.79811 21.3421 6.53765 21.5706C6.27718 21.799 5.92391 21.9274 5.55556 21.9274H1.38889C1.02053 21.9274 0.667263 21.799 0.406796 21.5706C0.146329 21.3421 0 21.0323 0 20.7092V17.0546ZM9.02778 1.21817C9.02778 0.895082 9.17411 0.585231 9.43457 0.356776C9.69504 0.128322 10.0483 -2.28882e-05 10.4167 -2.28882e-05H14.5833C14.9517 -2.28882e-05 15.305 0.128322 15.5654 0.356776C15.8259 0.585231 15.9722 0.895082 15.9722 1.21817V4.87273C15.9722 5.19582 15.8259 5.50567 15.5654 5.73412C15.305 5.96257 14.9517 6.09092 14.5833 6.09092H10.4167C10.0483 6.09092 9.69504 5.96257 9.43457 5.73412C9.17411 5.50567 9.02778 5.19582 9.02778 4.87273V1.21817ZM9.02778 9.13639C9.02778 8.81331 9.17411 8.50346 9.43457 8.275C9.69504 8.04655 10.0483 7.9182 10.4167 7.9182H14.5833C14.9517 7.9182 15.305 8.04655 15.5654 8.275C15.8259 8.50346 15.9722 8.81331 15.9722 9.13639V12.791C15.9722 13.114 15.8259 13.4239 15.5654 13.6523C15.305 13.8808 14.9517 14.0091 14.5833 14.0091H10.4167C10.0483 14.0091 9.69504 13.8808 9.43457 13.6523C9.17411 13.4239 9.02778 13.114 9.02778 12.791V9.13639ZM9.02778 17.0546C9.02778 16.7315 9.17411 16.4217 9.43457 16.1932C9.69504 15.9648 10.0483 15.8364 10.4167 15.8364H14.5833C14.9517 15.8364 15.305 15.9648 15.5654 16.1932C15.8259 16.4217 15.9722 16.7315 15.9722 17.0546V20.7092C15.9722 21.0323 15.8259 21.3421 15.5654 21.5706C15.305 21.799 14.9517 21.9274 14.5833 21.9274H10.4167C10.0483 21.9274 9.69504 21.799 9.43457 21.5706C9.17411 21.3421 9.02778 21.0323 9.02778 20.7092V17.0546ZM18.0556 1.21817C18.0556 0.895082 18.2019 0.585231 18.4624 0.356776C18.7228 0.128322 19.0761 -2.28882e-05 19.4444 -2.28882e-05H23.6111C23.9795 -2.28882e-05 24.3327 0.128322 24.5932 0.356776C24.8537 0.585231 25 0.895082 25 1.21817V4.87273C25 5.19582 24.8537 5.50567 24.5932 5.73412C24.3327 5.96257 23.9795 6.09092 23.6111 6.09092H19.4444C19.0761 6.09092 18.7228 5.96257 18.4624 5.73412C18.2019 5.50567 18.0556 5.19582 18.0556 4.87273V1.21817ZM18.0556 9.13639C18.0556 8.81331 18.2019 8.50346 18.4624 8.275C18.7228 8.04655 19.0761 7.9182 19.4444 7.9182H23.6111C23.9795 7.9182 24.3327 8.04655 24.5932 8.275C24.8537 8.50346 25 8.81331 25 9.13639V12.791C25 13.114 24.8537 13.4239 24.5932 13.6523C24.3327 13.8808 23.9795 14.0091 23.6111 14.0091H19.4444C19.0761 14.0091 18.7228 13.8808 18.4624 13.6523C18.2019 13.4239 18.0556 13.114 18.0556 12.791V9.13639ZM18.0556 17.0546C18.0556 16.7315 18.2019 16.4217 18.4624 16.1932C18.7228 15.9648 19.0761 15.8364 19.4444 15.8364H23.6111C23.9795 15.8364 24.3327 15.9648 24.5932 16.1932C24.8537 16.4217 25 16.7315 25 17.0546V20.7092C25 21.0323 24.8537 21.3421 24.5932 21.5706C24.3327 21.799 23.9795 21.9274 23.6111 21.9274H19.4444C19.0761 21.9274 18.7228 21.799 18.4624 21.5706C18.2019 21.3421 18.0556 21.0323 18.0556 20.7092V17.0546Z" fill="#F1F1F1"/>
</svg>
