<svg width="70" height="70" viewBox="0 0 70 70" fill="none" xmlns="http://www.w3.org/2000/svg">
<rect x="1" y="1" width="68" height="68" rx="34" stroke="#CCCCCC" stroke-width="2"/>
<path d="M36.5 17.5C45.613 17.5 53 24.887 53 34C53 43.1129 45.613 50.5 36.5 50.5C33.5841 50.505 30.7194 49.7333 28.2005 48.2642L20.0066 50.5L22.2374 42.3028C20.7672 39.7831 19.9949 36.9172 20 34C20 24.887 27.3871 17.5 36.5 17.5ZM30.8768 26.245L30.5468 26.2582C30.3335 26.2729 30.125 26.3289 29.933 26.4232C29.7541 26.5247 29.5907 26.6514 29.4479 26.7994C29.2499 26.9858 29.1377 27.1475 29.0173 27.3043C28.407 28.0978 28.0784 29.072 28.0834 30.073C28.0867 30.8815 28.2979 31.6685 28.6279 32.4044C29.3027 33.8927 30.4132 35.4685 31.8784 36.9287C32.2315 37.2802 32.578 37.6333 32.9509 37.9616C34.7715 39.5645 36.941 40.7204 39.2869 41.3375L40.2241 41.4811C40.5293 41.4976 40.8346 41.4745 41.1415 41.4596C41.6219 41.4343 42.091 41.3042 42.5159 41.0785C42.7318 40.9669 42.9427 40.8457 43.1479 40.7155C43.1479 40.7155 43.2177 40.6682 43.3541 40.567C43.5769 40.402 43.7138 40.2848 43.8986 40.0918C44.0372 39.9488 44.1527 39.7827 44.2451 39.5935C44.3738 39.3245 44.5025 38.8114 44.5553 38.384C44.5949 38.0573 44.5834 37.8791 44.5784 37.7686C44.5718 37.592 44.425 37.4089 44.2649 37.3313L43.3046 36.9007C43.3046 36.9007 41.8691 36.2753 40.9913 35.876C40.8994 35.836 40.801 35.8131 40.7009 35.8084C40.588 35.7966 40.4739 35.8092 40.3663 35.8453C40.2587 35.8815 40.1601 35.9404 40.0772 36.0179C40.069 36.0146 39.9584 36.1087 38.7655 37.5541C38.697 37.6461 38.6027 37.7156 38.4945 37.7538C38.3864 37.792 38.2693 37.7972 38.1583 37.7686C38.0507 37.7399 37.9454 37.7035 37.8431 37.6597C37.6385 37.5739 37.5676 37.5409 37.4273 37.4815C36.48 37.0688 35.6031 36.5104 34.8286 35.8265C34.6207 35.645 34.4276 35.447 34.2296 35.2556C33.5805 34.6339 33.0148 33.9307 32.5466 33.1634L32.4493 33.0067C32.3804 32.9008 32.3239 32.7873 32.281 32.6684C32.2183 32.4259 32.3816 32.2312 32.3816 32.2312C32.3816 32.2312 32.7826 31.7923 32.969 31.5547C33.1505 31.3237 33.304 31.0993 33.403 30.9392C33.5977 30.6257 33.6587 30.304 33.5564 30.0548C33.0944 28.9262 32.617 27.8037 32.1242 26.6872C32.0269 26.4661 31.7381 26.3077 31.4758 26.2763C31.3867 26.2653 31.2976 26.2565 31.2085 26.2499C30.9869 26.2372 30.7648 26.2394 30.5435 26.2565L30.8768 26.245Z" fill="white"/>
</svg>
